# xmcd
#
# Track frame offsets:
#	183
#	11305
#	22953
#	35013
#	46105
#	61288
#	73035
#	83053
#	97843
#	110913
#	120708
#	130010
#	141715
#	153430
#	165815
#	175555
#	188900
#	200250
#	212263
#	224490
#	236145
#	248293
#	258920
#	269035
#	280125
#	291193
#	301698
#	309978
#
# Disc length: 4287 seconds
#
# Revision: 9
# Processed by: cddbd v1.5.1PL0 Copyright (c) Steve Scherf et al.
# Submitted via: audiograbber 1.81.03
#
DISCID=7f10bd1c
DTITLE=Various Artist - Atlantic R&B Vol. 3 (1955-1958)
DYEAR=1985
DGENRE=R&B
TTITLE0=Drifters - Ruby Baby
TTITLE1=Cookies - In Paradise
TTITLE2=Big Joe Turner - Chick and the Hawk
TTITLE3=Clovers - Devil or Angel
TTITLE4=Ray Charles - Drown in My Own Tears
TTITLE5=Ray Charles - Hallelujah, I Love Her So
TTITLE6=LaVern Baker - Jim Dandy
TTITLE7=Coasters - Down in Mexico
TTITLE8=Big Joe Turner - Corrine Corinna
TTITLE9=Clyde McPhatter - Treasure of Love
TTITLE10=Clovers - Love, Love, Love
TTITLE11=Chuck Willis - It's Too Late
TTITLE12=Ray Charles - Lonely Avenue
TTITLE13=Ivory Joe Hunter - Since I Met You Baby
TTITLE14=Ruth Brown - Lucky Lips
TTITLE15=Clyde McPhatter - Without Love
TTITLE16=Drifters - Fools Fall in Love
TTITLE17=Big Joe Turner - Midnight Special Train
TTITLE18=Ivory Joe Hunter - Empty Arms
TTITLE19=Chuck Willis -  C.C. Rider
TTITLE20=Coasters - Searchin'
TTITLE21=Coasters - Young Blood
TTITLE22=Bobbettes - Mr. Lee
TTITLE23=Chuck Willis - Betty and Dupree
TTITLE24=Chuck Willis - What Am I Livin' For
TTITLE25=Chuck Willis - Hang Up My Rock and Roll Shoes
TTITLE26=Coasters - Yakety Yak
TTITLE27=Clyde McPhatter - Lover's Question
EXTD=
EXTT0=
EXTT1=
EXTT2=
EXTT3=
EXTT4=
EXTT5=
EXTT6=
EXTT7=
EXTT8=
EXTT9=
EXTT10=
EXTT11=
EXTT12=
EXTT13=
EXTT14=
EXTT15=
EXTT16=
EXTT17=
EXTT18=
EXTT19=
EXTT20=
EXTT21=
EXTT22=
EXTT23=
EXTT24=
EXTT25=
EXTT26=
EXTT27=
PLAYORDER=
